<?xml version="1.0" encoding="utf-8"?>
<!-- Generator: Adobe Illustrator 23.0.0, SVG Export Plug-In . SVG Version: 6.00 Build 0)  -->
<svg version="1.1" id="Layer_1" xmlns:svg="http://www.w3.org/2000/svg"
	 xmlns="http://www.w3.org/2000/svg" xmlns:xlink="http://www.w3.org/1999/xlink" x="0px" y="0px" viewBox="0 0 64 64"
	 style="enable-background:new 0 0 64 64;" xml:space="preserve">
<style type="text/css">
	.st0{fill:#0A73B8;}
	.st1{fill:#CACAC9;}
	.st2{fill:#56BD8D;}
</style>
<path class="st0" d="M13,13L9.4,9.4c0,0-2,2.1-3,3.4c-1,1.2-2.1,3.3-2.1,3.3l4.4,2.5 M13,13L9.4,9.4c0,0-2,2.1-3,3.4
	c-1,1.2-2.1,3.3-2.1,3.3l4.4,2.5 M13,13L9.4,9.4c0,0-2,2.1-3,3.4c-1,1.2-2.1,3.3-2.1,3.3l4.4,2.5"/>
<path class="st0" d="M18.6,8.7l-2.5-4.4c0,0-2.5,1.5-3.7,2.5c-1.3,1-2.9,2.6-2.9,2.6l3.6,3.6 M25.1,6l-1.4-4.9c0,0-2.8,0.8-4.2,1.4
	C18,3.1,16,4.3,16,4.3l2.5,4.4"/>
<path class="st0" d="M32,5.1V0c0,0-2.9,0.1-4.5,0.3s-3.8,0.8-3.8,0.8L25,6 M39,6l1.3-4.9 M39,6l1.3-4.9 M39,6l1.3-4.9
	c0,0-2.8-0.7-4.4-0.9C34.4,0,32,0,32,0v5.1"/>
<path class="st1" d="M45.6,8.7l2.6-4.4c0,0-2.5-1.4-4-2c-1.5-0.6-3.8-1.2-3.8-1.2L39.1,6 M51,13l3.6-3.6 M51,13l3.6-3.6 M51,13
	l3.6-3.6c0,0-2.1-2-3.4-3c-1.2-1-3.3-2.1-3.3-2.1l-2.5,4.4"/>
<path class="st1" d="M55.3,18.6l4.4-2.5c0,0-1.5-2.5-2.5-3.7c-1-1.3-2.6-2.9-2.6-2.9L51,13.1 M58,25.1l4.9-1.3 M58,25.1l4.9-1.3
	 M58,25.1l4.9-1.3c0,0-0.8-2.8-1.4-4.2c-0.6-1.5-1.8-3.5-1.8-3.5l-4.4,2.5"/>
<path class="st1" d="M58.9,32H64c0,0-0.1-2.9-0.3-4.5s-0.8-3.8-0.8-3.8L58,25 M58,39l4.9,1.3 M58,39l4.9,1.3 M58,39l4.9,1.3
	c0,0,0.7-2.8,0.9-4.4C64,34.3,64,32,64,32h-5.1"/>
<path class="st1" d="M55.3,45.5l4.4,2.6c0,0,1.4-2.5,2-4s1.2-3.7,1.2-3.7L58,39.1 M51,51l3.6,3.6 M51,51l3.6,3.6 M51,51l3.6,3.6
	c0,0,2-2.1,3-3.4c1-1.2,2.1-3.3,2.1-3.3l-4.4-2.5"/>
<path class="st2" d="M45.4,55.3l2.5,4.4c0,0,2.5-1.5,3.7-2.5c1.3-1,2.9-2.6,2.9-2.6L50.9,51 M38.9,58l1.3,4.9 M38.9,58l1.3,4.9
	 M38.9,58l1.3,4.9c0,0,2.8-0.8,4.2-1.4c1.5-0.6,3.5-1.8,3.5-1.8l-2.5-4.4"/>
<path class="st2" d="M32,58.9V64c0,0,2.9-0.1,4.5-0.3s3.8-0.8,3.8-0.8L39,58 M25,58l-1.3,4.9 M25,58l-1.3,4.9 M25,58l-1.3,4.9
	c0,0,2.8,0.7,4.4,0.9C29.7,64,32,64,32,64v-5.1"/>
<path class="st2" d="M18.5,55.3l-2.6,4.4c0,0,2.5,1.4,4,2s3.7,1.2,3.7,1.2l1.3-4.9 M13,51l-3.6,3.6 M13,51l-3.6,3.6 M13,51l-3.6,3.6
	c0,0,2.1,2,3.4,3c1.2,1,3.3,2.1,3.3,2.1l2.5-4.4"/>
<path class="st2" d="M8.7,45.4l-4.4,2.5c0,0,1.5,2.5,2.5,3.7c1,1.3,2.6,2.9,2.6,2.9l3.6-3.6 M6,38.9l-4.9,1.3 M6,38.9l-4.9,1.3
	 M6,38.9l-4.9,1.3c0,0,0.8,2.8,1.4,4.2c0.6,1.5,1.8,3.5,1.8,3.5l4.4-2.5"/>
<path class="st0" d="M5.1,32H0c0,0,0.1,2.9,0.3,4.5s0.8,3.8,0.8,3.8L6,39 M6,25l-4.9-1.3c0,0-0.7,2.8-0.9,4.4S0,32,0,32h5.1"/>
<path class="st0" d="M8.7,18.5l-4.4-2.6c0,0-1.4,2.5-2,4s-1.2,3.7-1.2,3.7L6,24.9"/>
</svg>
